<svg version="1" xmlns="http://www.w3.org/2000/svg" width="668" height="668" viewBox="0 0 501.000000 501.000000"><path d="M319 62.5c0 .8.7 1.5 1.5 1.5s1.5-.7 1.5-1.5-.7-1.5-1.5-1.5-1.5.7-1.5 1.5zM172 65.5c0 .8.7 1.5 1.5 1.5s1.5-.7 1.5-1.5-.7-1.5-1.5-1.5-1.5.7-1.5 1.5zM325 65.5c0 .8.7 1.5 1.5 1.5s1.5-.7 1.5-1.5-.7-1.5-1.5-1.5-1.5.7-1.5 1.5zM167 68.5c0 .8.7 1.5 1.5 1.5s1.5-.7 1.5-1.5-.7-1.5-1.5-1.5-1.5.7-1.5 1.5zM330 68.5c0 .8.7 1.5 1.5 1.5s1.5-.7 1.5-1.5-.7-1.5-1.5-1.5-1.5.7-1.5 1.5zM161 71c0 .5.7 1 1.5 1s1.5-.5 1.5-1c0-.6-.7-1-1.5-1s-1.5.4-1.5 1zM336 71c0 .5 1.1 1 2.5 1 1.6 0 2.5.6 2.5 1.5 0 1 1 1.5 3 1.5s3 .5 3 1.5c0 .8.7 1.5 1.5 1.5s1.5.7 1.5 1.5c0 .9.9 1.5 2.5 1.5 1.4 0 2.5.4 2.5 1 0 .5 1.4 1 3 1 2 0 3 .5 3 1.5 0 .8.7 1.5 1.5 1.5s1.5.7 1.5 1.5.5 1.5 1 1.5c.6 0 1 .7 1 1.5s.7 1.5 1.5 1.5 1.5.7 1.5 1.5c0 .9 1 1.5 2.6 1.5 2.6 0 5.4 2 5.4 3.9 0 .6.7 1.1 1.5 1.1s1.5.7 1.5 1.5.7 1.5 1.5 1.5 1.5.7 1.5 1.5.7 1.5 1.5 1.5 1.5.4 1.5 1c0 .5.7 1 1.5 1s1.5.7 1.5 1.5.5 1.5 1 1.5c.6 0 1 .7 1 1.5s.7 1.5 1.5 1.5c.9 0 1.5.9 1.5 2.5s.6 2.5 1.5 2.5c.8 0 1.5.7 1.5 1.5s.7 1.5 1.5 1.5 1.5.7 1.5 1.5.5 1.5 1 1.5c.6 0 1 1.3 1 3 0 2 .5 3 1.5 3 .8 0 1.5.4 1.5 1 0 .5.7 1 1.5 1s1.5.7 1.5 1.5.7 1.5 1.5 1.5c1 0 1.5 1 1.5 3s.5 3 1.5 3c.9 0 1.5.9 1.5 2.5 0 1.4.5 2.5 1 2.5.6 0 1 1.3 1 3 0 2 .5 3 1.5 3 .9 0 1.5.9 1.5 2.5s.6 2.5 1.5 2.5c1.1 0 1.5 1.2 1.5 4.5s.4 4.5 1.5 4.5c.9 0 1.5.9 1.5 2.5 0 1.4.5 2.5 1 2.5.6 0 1 2.5 1 5.5 0 4.2.3 5.5 1.5 5.5s1.5 1.8 1.5 10 .3 10 1.5 10c1.3 0 1.5 3.1 1.5 22s-.2 22-1.5 22c-1.2 0-1.5 1.9-1.5 11s-.3 11-1.5 11-1.5 1.3-1.5 5.5c0 3-.4 5.5-1 5.5-.5 0-1 1.8-1 4 0 2.9-.4 4-1.5 4s-1.5 1.2-1.5 4.5-.4 4.5-1.5 4.5-1.5 1.1-1.5 4-.4 4-1.5 4c-1 0-1.5 1-1.5 3 0 1.6-.4 3-1 3-.5 0-1 1.1-1 2.5 0 1.6-.6 2.5-1.5 2.5-1 0-1.5 1-1.5 3s-.5 3-1.5 3c-.9 0-1.5.9-1.5 2.5s-.6 2.5-1.5 2.5c-.8 0-1.5.7-1.5 1.5s-.7 1.5-1.5 1.5-1.5.7-1.5 1.5-.4 1.5-1 1.5c-.5 0-1 1.1-1 2.5 0 1.6-.6 2.5-1.5 2.5-1 0-1.5 1-1.5 3s-.5 3-1.5 3c-.8 0-1.5.7-1.5 1.5s-.5 1.5-1.1 1.5c-1.4 0-3.9 2.5-3.9 3.9 0 .6-.7 1.1-1.5 1.1-1 0-1.5 1-1.5 3 0 2.7-.3 3-3 3-2 0-3 .5-3 1.5 0 .8-.5 1.5-1.1 1.5-1.9 0-3.9 2.8-3.9 5.4 0 2.2-.4 2.6-3 2.6-2 0-3 .5-3 1.5 0 .8-.5 1.5-1.1 1.5-1.4 0-3.9 2.5-3.9 3.9 0 .6-.7 1.1-1.5 1.1s-1.5.7-1.5 1.5c0 1-1 1.5-3 1.5-1.6 0-3 .5-3 1.1 0 1.4-2.5 3.9-3.9 3.9-.6 0-1.1.7-1.1 1.5 0 1-1 1.5-3 1.5s-3 .5-3 1.5c0 .8-.7 1.5-1.5 1.5s-1.5.7-1.5 1.5c0 .9-.9 1.5-2.5 1.5s-2.5.6-2.5 1.5c0 1-1 1.5-3 1.5-1.6 0-3 .4-3 1 0 .5-1.1 1-2.5 1-1.6 0-2.5.6-2.5 1.5 0 .8-.7 1.5-1.5 1.5s-1.5.7-1.5 1.5c0 1.1-1.1 1.5-4 1.5s-4 .4-4 1.5-1.2 1.5-4.5 1.5c-2.5 0-4.5.4-4.5 1 0 .5-1.8 1-4 1-2.9 0-4 .4-4 1.5 0 1.2-1.3 1.5-5.5 1.5s-5.5.3-5.5 1.5-1.4 1.5-7 1.5-7 .3-7 1.5c0 1.3-2.9 1.5-20.5 1.5s-20.5-.2-20.5-1.5c0-1.2-1.6-1.5-8.5-1.5s-8.5-.3-8.5-1.5-1.3-1.5-5.5-1.5-5.5-.3-5.5-1.5c0-1.1-1.1-1.5-4-1.5-2.2 0-4-.5-4-1 0-.6-2-1-4.5-1-3.3 0-4.5-.4-4.5-1.5 0-.9-.9-1.5-2.5-1.5s-2.5-.6-2.5-1.5c0-1-1-1.5-3-1.5s-3-.5-3-1.5c0-.9-.9-1.5-2.5-1.5-1.4 0-2.5-.5-2.5-1 0-.6-1.3-1-3-1-2 0-3-.5-3-1.5 0-.8-.7-1.5-1.5-1.5s-1.5-.7-1.5-1.5c0-.9-.9-1.5-2.5-1.5s-2.5-.6-2.5-1.5c0-1-1-1.5-3-1.5-1.6 0-3-.5-3-1.1 0-1.4-2.5-3.9-3.9-3.9-.6 0-1.1-.7-1.1-1.5s-.7-1.5-1.5-1.5-1.5-.7-1.5-1.5c0-1-1-1.5-3-1.5-1.6 0-3-.5-3-1.1 0-1.4-2.5-3.9-3.9-3.9-.6 0-1.1-.7-1.1-1.5s-.7-1.5-1.5-1.5-1.5-.7-1.5-1.5-.7-1.5-1.5-1.5-1.5-.5-1.5-1.1c0-1.4-2.5-3.9-3.9-3.9-.6 0-1.1-.7-1.1-1.5s-.7-1.5-1.5-1.5-1.5-.7-1.5-1.5-.7-1.5-1.5-1.5-1.5-.7-1.5-1.5-.7-1.5-1.5-1.5-1.5-.5-1.5-1.1c0-1.4-2.5-3.9-3.9-3.9-.6 0-1.1-1.4-1.1-3 0-2-.5-3-1.5-3-.8 0-1.5-.7-1.5-1.5s-.7-1.5-1.5-1.5c-.9 0-1.5-.9-1.5-2.5 0-1.4-.4-2.5-1-2.5-.5 0-1-.7-1-1.5s-.7-1.5-1.5-1.5c-1 0-1.5-1-1.5-3s-.5-3-1.5-3c-.8 0-1.5-.5-1.5-1 0-.6-.7-1-1.5-1-1.1 0-1.5-1.2-1.5-4.5 0-2.5-.4-4.5-1-4.5-.5 0-1-1.1-1-2.5 0-1.6-.6-2.5-1.5-2.5-1 0-1.5-1-1.5-3s-.5-3-1.5-3c-.9 0-1.5-.9-1.5-2.5s-.6-2.5-1.5-2.5c-1.2 0-1.5-1.3-1.5-5.5s-.3-5.5-1.5-5.5-1.5-1.3-1.5-5.5c0-3-.4-5.5-1-5.5-.5 0-1-2.5-1-5.5 0-4.2-.3-5.5-1.5-5.5s-1.5-1.8-1.5-10-.3-10-1.5-10c-1.3 0-1.5-2.7-1.5-18s.2-18 1.5-18c1.2 0 1.5-1.9 1.5-11s.3-11 1.5-11 1.5-1.3 1.5-5.5c0-3 .5-5.5 1-5.5.6 0 1-1.8 1-4 0-2.9.4-4 1.5-4s1.5-1.2 1.5-4.5.4-4.5 1.5-4.5c.9 0 1.5-.9 1.5-2.5s.6-2.5 1.5-2.5c1 0 1.5-1 1.5-3s.5-3 1.5-3c.9 0 1.5-.9 1.5-2.5 0-1.4.5-2.5 1-2.5.6 0 1-.7 1-1.5s.7-1.5 1.5-1.5c1 0 1.5-1 1.5-3s.5-3 1.5-3c.8 0 1.5-.5 1.5-1 0-.6.7-1 1.5-1 1 0 1.5-1 1.5-3 0-1.7.5-3 1-3 .6 0 1-.7 1-1.5s.7-1.5 1.5-1.5 1.5-.7 1.5-1.5.7-1.5 1.5-1.5c.9 0 1.5-.9 1.5-2.5s.6-2.5 1.5-2.5c.8 0 1.5-.7 1.5-1.5s.5-1.5 1-1.5c.6 0 1-.7 1-1.5s.7-1.5 1.5-1.5 1.5-.5 1.5-1c0-.6.7-1 1.5-1s1.5-.7 1.5-1.5.7-1.5 1.5-1.5 1.5-.7 1.5-1.5.7-1.5 1.5-1.5 1.5-.5 1.5-1.1c0-1.9 2.8-3.9 5.4-3.9 1.6 0 2.6-.6 2.6-1.5 0-.8.7-1.5 1.5-1.5s1.5-.7 1.5-1.5.5-1.5 1-1.5c.6 0 1-.7 1-1.5 0-1 1-1.5 3-1.5s3-.5 3-1.5c0-.8.7-1.5 1.5-1.5s1.5-.5 1.5-1c0-.6 1.1-1 2.5-1 1.6 0 2.5-.6 2.5-1.5 0-.8.7-1.5 1.5-1.5s1.5-.7 1.5-1.5-.7-1.5-1.5-1.5-1.5.7-1.5 1.5c0 .9-.9 1.5-2.5 1.5s-2.5.6-2.5 1.5c0 .8-.7 1.5-1.5 1.5s-1.5.4-1.5 1c0 .5-1.3 1-3 1-2 0-3 .5-3 1.5 0 .8-.4 1.5-1 1.5-.5 0-1 .7-1 1.5 0 1-1 1.5-3 1.5s-3 .5-3 1.5c0 .8-.7 1.5-1.5 1.5s-1.5.5-1.5 1.1c0 1.9-2.8 3.9-5.4 3.9-1.6 0-2.6.6-2.6 1.5 0 .8-.7 1.5-1.5 1.5s-1.5.7-1.5 1.5-.7 1.5-1.5 1.5-1.5.5-1.5 1.1c0 1.4-2.5 3.9-3.9 3.9-.6 0-1.1.7-1.1 1.5s-.7 1.5-1.5 1.5-1.5.7-1.5 1.5-.7 1.5-1.5 1.5-1.5.7-1.5 1.5-.4 1.5-1 1.5c-.5 0-1 1.1-1 2.5 0 1.6-.6 2.5-1.5 2.5-.8 0-1.5.7-1.5 1.5s-.7 1.5-1.5 1.5-1.5.7-1.5 1.5-.7 1.5-1.5 1.5-1.5.7-1.5 1.5-.4 1.5-1 1.5c-.5 0-1 1.1-1 2.5 0 1.6-.6 2.5-1.5 2.5-.8 0-1.5.7-1.5 1.5s-.7 1.5-1.5 1.5c-.9 0-1.5.9-1.5 2.5s-.6 2.5-1.5 2.5c-.8 0-1.5.7-1.5 1.5s-.7 1.5-1.5 1.5c-1 0-1.5 1-1.5 3 0 1.6-.4 3-1 3-.5 0-1 1.1-1 2.5 0 1.6-.6 2.5-1.5 2.5-1 0-1.5 1-1.5 3s-.5 3-1.5 3c-.9 0-1.5.9-1.5 2.5s-.6 2.5-1.5 2.5c-1.1 0-1.5 1.2-1.5 4.5 0 2.5-.4 4.5-1 4.5-.5 0-1 1.8-1 4 0 2.9-.4 4-1.5 4s-1.5 1.1-1.5 4-.4 4-1.5 4-1.5 1.2-1.5 4.5-.4 4.5-1.5 4.5c-1.2 0-1.5 1.6-1.5 8 0 4.7-.4 8-1 8s-1 11.3-1 32 .4 32 1 32 1 3 1 7c0 5.6.3 7 1.5 7s1.5 1.3 1.5 5.5.3 5.5 1.5 5.5c1.1 0 1.5 1.1 1.5 4s.4 4 1.5 4c1 0 1.5 1 1.5 3 0 1.6.5 3 1 3 .6 0 1 1.8 1 4 0 2.9.4 4 1.5 4 1 0 1.5 1 1.5 3s.5 3 1.5 3c.9 0 1.5.9 1.5 2.5s.6 2.5 1.5 2.5c1 0 1.5 1 1.5 3 0 1.6.5 3 1 3 .6 0 1 1.1 1 2.5 0 1.6.6 2.5 1.5 2.5.8 0 1.5.7 1.5 1.5s.7 1.5 1.5 1.5c1 0 1.5 1 1.5 3s.5 3 1.5 3c.8 0 1.5.4 1.5 1 0 .5.7 1 1.5 1 1 0 1.5 1 1.5 3 0 1.6.5 3 1 3 .6 0 1 .7 1 1.5s.7 1.5 1.5 1.5 1.5.4 1.5 1c0 .5.7 1 1.5 1 1 0 1.5 1 1.5 3s.5 3 1.5 3c.8 0 1.5.5 1.5 1.1 0 1.4 2.5 3.9 3.9 3.9.6 0 1.1.7 1.1 1.5s.7 1.5 1.5 1.5 1.5.7 1.5 1.5.7 1.5 1.5 1.5 1.5.7 1.5 1.5.5 1.5 1 1.5c.6 0 1 .7 1 1.5s.7 1.5 1.5 1.5 1.5.4 1.5 1c0 .5.7 1 1.5 1s1.5.7 1.5 1.5.7 1.5 1.5 1.5 1.5.7 1.5 1.5.7 1.5 1.5 1.5 1.5.7 1.5 1.5c0 .9.9 1.5 2.5 1.5 1.4 0 2.5.4 2.5 1 0 .5.7 1 1.5 1s1.5.7 1.5 1.5.7 1.5 1.5 1.5 1.5.7 1.5 1.5c0 .9.9 1.5 2.5 1.5s2.5.6 2.5 1.5c0 1 1 1.5 3 1.5 1.7 0 3 .4 3 1 0 .5.7 1 1.5 1s1.5.7 1.5 1.5c0 .9.9 1.5 2.5 1.5s2.5.6 2.5 1.5c0 1 1 1.5 3 1.5s3 .5 3 1.5c0 .9.9 1.5 2.5 1.5s2.5.6 2.5 1.5c0 1 1 1.5 3 1.5 1.7 0 3 .4 3 1 0 .5 1.1 1 2.5 1 1.6 0 2.5.6 2.5 1.5 0 1.1 1.2 1.5 4.5 1.5s4.5.4 4.5 1.5 1.1 1.5 4 1.5 4 .4 4 1.5c0 1.2 1.3 1.5 5.5 1.5 3 0 5.5.4 5.5 1s3 1 7 1c5.6 0 7 .3 7 1.5 0 1.3 2.1 1.5 12.5 1.5s12.5.2 12.5 1.5c0 1.2 1.6 1.5 8 1.5s8-.3 8-1.5c0-1.3 2.2-1.5 14-1.5s14-.2 14-1.5c0-1.2 1.3-1.5 5.5-1.5 3 0 5.5-.5 5.5-1 0-.6 2.5-1 5.5-1 4.2 0 5.5-.3 5.5-1.5 0-1.1 1.2-1.5 4.5-1.5s4.5-.4 4.5-1.5 1.1-1.5 4-1.5 4-.4 4-1.5c0-.9.9-1.5 2.5-1.5 1.4 0 2.5-.5 2.5-1 0-.6 1.4-1 3-1 2 0 3-.5 3-1.5 0-.9.9-1.5 2.5-1.5s2.5-.6 2.5-1.5c0-1 1-1.5 3-1.5s3-.5 3-1.5 1-1.5 3-1.5 3-.5 3-1.5c0-.9.9-1.5 2.5-1.5 1.4 0 2.5-.5 2.5-1 0-.6.7-1 1.5-1s1.5-.7 1.5-1.5c0-.9.9-1.5 2.5-1.5s2.5-.6 2.5-1.5c0-.8.7-1.5 1.5-1.5s1.5-.7 1.5-1.5.7-1.5 1.5-1.5 1.5-.5 1.5-1c0-.6 1.1-1 2.5-1 1.6 0 2.5-.6 2.5-1.5 0-.8.7-1.5 1.5-1.5s1.5-.7 1.5-1.5.7-1.5 1.5-1.5 1.5-.7 1.5-1.5.7-1.5 1.5-1.5 1.5-.5 1.5-1c0-.6.7-1 1.5-1s1.5-.7 1.5-1.5.5-1.5 1-1.5c.6 0 1-.7 1-1.5s.7-1.5 1.5-1.5 1.5-.7 1.5-1.5.7-1.5 1.5-1.5 1.5-.7 1.5-1.5.5-1.5 1.1-1.5c1.4 0 3.9-2.5 3.9-3.9 0-.6.7-1.1 1.5-1.1s1.5-.7 1.5-1.5.7-1.5 1.5-1.5c.9 0 1.5-.9 1.5-2.5s.6-2.5 1.5-2.5c.8 0 1.5-.7 1.5-1.5s.7-1.5 1.5-1.5 1.5-.7 1.5-1.5.5-1.5 1-1.5c.6 0 1-1.1 1-2.5 0-1.6.6-2.5 1.5-2.5.8 0 1.5-.7 1.5-1.5s.7-1.5 1.5-1.5c1 0 1.5-1 1.5-3s.5-3 1.5-3c.9 0 1.5-.9 1.5-2.5 0-1.4.5-2.5 1-2.5.6 0 1-1.4 1-3 0-2 .5-3 1.5-3 .9 0 1.5-.9 1.5-2.5s.6-2.5 1.5-2.5c1 0 1.5-1 1.5-3s.5-3 1.5-3 1.5-1 1.5-3c0-1.7.5-3 1-3 .6 0 1-1.8 1-4 0-2.9.4-4 1.5-4s1.5-1.1 1.5-4 .4-4 1.5-4c1.2 0 1.5-1.3 1.5-5.5s.3-5.5 1.5-5.5 1.5-1.3 1.5-5.5.3-5.5 1.5-5.5c1.3 0 1.5-2.1 1.5-12.5 0-7.7.4-12.5 1-12.5s1-4.3 1-11-.4-11-1-11-1-4.5-1-11.5c0-9.6-.3-11.5-1.5-11.5s-1.5-1.4-1.5-6.5-.3-6.5-1.5-6.5-1.5-1.3-1.5-6-.3-6-1.5-6c-1.1 0-1.5-1.1-1.5-4s-.4-4-1.5-4-1.5-1.1-1.5-4c0-2.2-.4-4-1-4-.5 0-1-1.4-1-3 0-2-.5-3-1.5-3-.9 0-1.5-.9-1.5-2.5s-.6-2.5-1.5-2.5c-1 0-1.5-1-1.5-3s-.5-3-1.5-3c-.9 0-1.5-.9-1.5-2.5 0-1.4-.4-2.5-1-2.5-.5 0-1-1.4-1-3 0-2-.5-3-1.5-3-.8 0-1.5-.7-1.5-1.5s-.7-1.5-1.5-1.5c-.9 0-1.5-.9-1.5-2.5s-.6-2.5-1.5-2.5c-.8 0-1.5-.7-1.5-1.5s-.4-1.5-1-1.5c-.5 0-1-1.1-1-2.5 0-1.6-.6-2.5-1.5-2.5-.8 0-1.5-.7-1.5-1.5s-.7-1.5-1.5-1.5-1.5-.7-1.5-1.5-.7-1.5-1.5-1.5c-1 0-1.5-1-1.5-3 0-1.7-.5-3-1.1-3-.6 0-1.7-.6-2.5-1.4-.8-.8-1.4-1.9-1.4-2.5 0-.6-.7-1.1-1.5-1.1s-1.5-.7-1.5-1.5-.7-1.5-1.5-1.5-1.5-.7-1.5-1.5-.5-1.5-1.1-1.5c-.6 0-1.7-.6-2.5-1.4-.8-.8-1.4-1.9-1.4-2.5 0-.6-.7-1.1-1.5-1.1s-1.5-.7-1.5-1.5-.7-1.5-1.5-1.5-1.5-.7-1.5-1.5-.7-1.5-1.5-1.5-1.5-.5-1.5-1c0-.6-1.1-1-2.5-1-1.6 0-2.5-.6-2.5-1.5 0-.8-.7-1.5-1.5-1.5s-1.5-.7-1.5-1.5-.7-1.5-1.5-1.5-1.5-.7-1.5-1.5c0-.9-.9-1.5-2.5-1.5s-2.5-.6-2.5-1.5c0-.8-.7-1.5-1.5-1.5s-1.5-.5-1.5-1c0-.6-1.3-1-3-1-2 0-3-.5-3-1.5 0-.9-.9-1.5-2.5-1.5s-2.5-.6-2.5-1.5c0-.8-.7-1.5-1.5-1.5s-1.5-.7-1.5-1.5c0-1-1-1.5-3-1.5-1.6 0-3-.5-3-1 0-.6-1.1-1-2.5-1s-2.5.4-2.5 1z"/><path d="M156 73.5c0 .8.7 1.5 1.5 1.5s1.5-.7 1.5-1.5-.7-1.5-1.5-1.5-1.5.7-1.5 1.5zM236 148.5c0 1.2-1.4 1.5-7 1.5s-7 .3-7 1.5-1.3 1.5-5.5 1.5c-3 0-5.5.4-5.5 1 0 .5-1.1 1-2.5 1-1.6 0-2.5.6-2.5 1.5 0 1-1 1.5-3 1.5s-3 .5-3 1.5c0 .9-.9 1.5-2.5 1.5s-2.5.6-2.5 1.5c0 1-1 1.5-3 1.5s-3 .5-3 1.5c0 .8-.5 1.5-1.1 1.5-1.4 0-3.9 2.5-3.9 3.9 0 .6-1.3 1.1-3 1.1-2 0-3 .5-3 1.5 0 .8-.7 1.5-1.5 1.5s-1.5.7-1.5 1.5-.7 1.5-1.5 1.5c-.9 0-1.5.9-1.5 2.5 0 1.4-.4 2.5-1 2.5-.5 0-1 1.3-1 3 0 2.5.4 3 2.5 3 1.6 0 2.5-.6 2.5-1.5 0-.8.7-1.5 1.5-1.5s1.5-.7 1.5-1.5c0-1 1-1.5 3-1.5 1.7 0 3-.5 3-1.1 0-1.9 2.8-3.9 5.4-3.9 1.6 0 2.6-.6 2.6-1.5s.9-1.5 2.5-1.5 2.5-.6 2.5-1.5c0-1.1 1.2-1.5 4.5-1.5s4.5-.4 4.5-1.5 1.1-1.5 4-1.5c2.2 0 4-.5 4-1 0-.6 3-1 7-1 5.6 0 7-.3 7-1.5 0-1.3 3.3-1.5 23.5-1.5s23.5.2 23.5 1.5c0 1.2 1.4 1.5 7 1.5 4 0 7 .4 7 1 0 .5 1.8 1 4 1 2.9 0 4 .4 4 1.5s1.1 1.5 4 1.5 4 .4 4 1.5c0 1 1 1.5 3 1.5s3 .5 3 1.5c0 .9 1 1.5 2.6 1.5 2.6 0 5.4 2 5.4 3.9 0 .6 1.4 1.1 3 1.1 2 0 3 .5 3 1.5 0 .8.7 1.5 1.5 1.5s1.5.7 1.5 1.5c0 .9.9 1.5 2.5 1.5 2.1 0 2.5-.5 2.5-3 0-2-.5-3-1.5-3-.9 0-1.5-.9-1.5-2.5 0-1.4-.4-2.5-1-2.5-.5 0-1-.7-1-1.5s-.7-1.5-1.5-1.5-1.5-.7-1.5-1.5-.7-1.5-1.5-1.5-1.5-.7-1.5-1.5c0-.9-.9-1.5-2.5-1.5-1.4 0-2.5-.5-2.5-1 0-.6-.7-1-1.5-1s-1.5-.7-1.5-1.5c0-1-1-1.5-3-1.5s-3-.5-3-1.5c0-.9-.9-1.5-2.5-1.5s-2.5-.6-2.5-1.5c0-1-1-1.5-3-1.5s-3-.5-3-1.5c0-.9-.9-1.5-2.5-1.5-1.4 0-2.5-.5-2.5-1 0-.6-2.5-1-5.5-1-4.2 0-5.5-.3-5.5-1.5s-1.4-1.5-7-1.5-7-.3-7-1.5c0-1.3-2.4-1.5-15.5-1.5s-15.5.2-15.5 1.5zM184 256.5c0 .8-.7 1.5-1.5 1.5s-1.5.7-1.5 1.5-.7 1.5-1.5 1.5-1.5.7-1.5 1.5-.7 1.5-1.5 1.5-1.5.4-1.5 1c0 .5-.7 1-1.5 1-1 0-1.5 1-1.5 3 0 1.6-.4 3-1 3s-1 6.2-1 16.5.4 16.5 1 16.5 1 1.3 1 3c0 2 .5 3 1.5 3 .8 0 1.5.4 1.5 1 0 .5.7 1 1.5 1s1.5.7 1.5 1.5.7 1.5 1.5 1.5 1.5.7 1.5 1.5c0 1.1 1.1 1.5 4 1.5s4 .4 4 1.5c0 .8.7 1.5 1.5 1.5s1.5-.7 1.5-1.5c0-1.1 1.1-1.5 4-1.5s4-.4 4-1.5c0-.8.7-1.5 1.5-1.5s1.5-.7 1.5-1.5.7-1.5 1.5-1.5c.9 0 1.5-.9 1.5-2.5 0-1.4.5-2.5 1-2.5.6 0 1-1.4 1-3 0-2 .5-3 1.5-3 1.3 0 1.5-2.2 1.5-13.5s-.2-13.5-1.5-13.5c-1.1 0-1.5-1.1-1.5-4.1 0-3.9-1.7-6.9-3.9-6.9-.6 0-1.1-.7-1.1-1.5s-.7-1.5-1.5-1.5-1.5-.7-1.5-1.5-.7-1.5-1.5-1.5-1.5-.7-1.5-1.5c0-1.2-1.4-1.5-6.5-1.5s-6.5.3-6.5 1.5zM303 256.5c0 .8-.7 1.5-1.5 1.5s-1.5.7-1.5 1.5-.7 1.5-1.5 1.5-1.5.7-1.5 1.5-.5 1.5-1.1 1.5c-2.2 0-3.9 3-3.9 6.9 0 3-.4 4.1-1.5 4.1-1.3 0-1.5 2.2-1.5 13.5s.2 13.5 1.5 13.5c1 0 1.5 1 1.5 3 0 1.6.5 3 1 3 .6 0 1 1.1 1 2.5 0 1.6.6 2.5 1.5 2.5.8 0 1.5.7 1.5 1.5s.7 1.5 1.5 1.5 1.5.7 1.5 1.5c0 1.2 1.7 1.5 9.5 1.5s9.5-.3 9.5-1.5c0-.8.7-1.5 1.5-1.5s1.5-.7 1.5-1.5.7-1.5 1.5-1.5 1.5-.5 1.5-1c0-.6.7-1 1.5-1 1.1 0 1.5-1.2 1.5-4.5 0-2.5.5-4.5 1-4.5.6 0 1-5.7 1-15s-.4-15-1-15c-.5 0-1-1.4-1-3 0-2-.5-3-1.5-3-.8 0-1.5-.5-1.5-1 0-.6-.7-1-1.5-1s-1.5-.7-1.5-1.5-.7-1.5-1.5-1.5-1.5-.7-1.5-1.5-.4-1.5-1-1.5c-.5 0-1-.7-1-1.5 0-1.2-1.4-1.5-7-1.5s-7 .3-7 1.5z"/></svg>